# xmcd CD database file
#
# Track frame offsets:
#	150
#	31479
#	58925
#	76366
#	89487
#	104297
#	124435
#	168567
#	199335
#	230736
#	252997
#	270164
#	298104
#	322841
#
# Disc length: 4622 seconds
#
# Revision: 0
# Processed by: cddbd v1.4PL0 Copyright (c) Steve Scherf et al.
# Submitted via: CDex 1.50Beta7
#
DISCID=ce120c0e
DTITLE=Chucho Valdes - The Latin Jazz Sides
DYEAR=2002
DGENRE=Jazz
TTITLE0=Chorrino - Jesus Valdés 
TTITLE1=Este Camino - Juan Almeida
TTITLE2=Chiquitico - Jesus Valdés
TTITLE3=Descarga Para Ti  - Jesus Valdés
TTITLE4=Mambo Influenciado  - Jesus Valdés
TTITLE5=En Nosotros - Tania Castellanos
TTITLE6=Estela Va a Estallar - Jesus Valdés
TTITLE7=A Chano Pozo - Carlos del Puerto
TTITLE8=Calzada del Cerro - Jesus Valdés
TTITLE9=Valle de Picadura - Jesus Valdés
TTITLE10=Bacalao con Pan - Raùl Valdés
TTITLE11=Bailando Asi - Manolo del Valle
TTITLE12=Te Toco Perder - Jesus Valdés
TTITLE13=Que Se Sepa, Yo Soy de la Habana - Oscar Valdés
EXTD=YEAR: 2002
EXTT0=
EXTT1=
EXTT2=
EXTT3=
EXTT4=
EXTT5=
EXTT6=
EXTT7=
EXTT8=
EXTT9=
EXTT10=
EXTT11=
EXTT12=
EXTT13=
PLAYORDER=
